# xmcd
#
# Track frame offsets:
# 150
# 14781
# 35606
# 52224
# 61167
# 80802
# 99633
# 114981
# 130251
#
# Disc length: 2074 seconds
#
# Revision: 0
# Processed by: cddbd v1.5.2PL0 Copyright (c) Steve Scherf et al.
# Submitted via: Audion 3.0.2 (http://www.panic.com/audion/)
#
DISCID=7f081809
DTITLE=Sergio Marino - Meteore
DYEAR=1900
DGENRE=
TTITLE0=Una storia nuova
TTITLE1=Dimmi si
TTITLE2=Anima fredda
TTITLE3=Il mio amico musicista
TTITLE4=Il volo
TTITLE5=Senza riferimenti
TTITLE6=Sempre e solo tu
TTITLE7=Meteore perse
TTITLE8=Dream song
EXTD=
EXTT0=
EXTT1=
EXTT2=
EXTT3=
EXTT4=
EXTT5=
EXTT6=
EXTT7=
EXTT8=
PLAYORDER=
